<?xml version="1.0" encoding="UTF-8"?>
<svg id="_레이어_1" data-name="레이어 1" xmlns="http://www.w3.org/2000/svg" viewBox="0 0 352.5 500">
  <defs>
    <style>
      .cls-1 {
        fill: #eac096;
      }

      .cls-1, .cls-2, .cls-3, .cls-4, .cls-5 {
        stroke-width: 0px;
      }

      .cls-2 {
        fill: #ffe6c5;
      }

      .cls-3 {
        fill: #e8efef;
      }

      .cls-4 {
        fill: #725851;
      }

      .cls-5 {
        fill: #e88e79;
      }
    </style>
  </defs>
  <ellipse class="cls-3" cx="214.84" cy="451.93" rx="127.89" ry="38.07"/>
  <g>
    <path class="cls-1" d="M40.8,301.04c-4.3-5.43-13.05-1.95-12.42,4.94,2.94,31.88,16.74,87.14,76.17,100.89,84.85,19.62,64.49-52.39,64.49-52.39,0,0-66.76,24.25-128.24-53.43Z"/>
    <path class="cls-4" d="M130.76,412.36c-7.86,0-16.76-1.14-26.68-3.44-60.74-14.05-74.81-70.4-77.79-102.74-.38-4.08,1.84-7.7,5.66-9.23,3.83-1.53,7.95-.44,10.51,2.79h0c31.25,39.49,63.8,51.72,85.6,55.04,23.62,3.59,40.11-2.22,40.27-2.28.55-.2,1.16-.16,1.68.11.52.27.91.74,1.06,1.3.09.3,2.11,7.57,2.22,16.97.14,12.63-3.33,23.02-10.03,30.05-7.26,7.62-18.14,11.43-32.49,11.43ZM35.42,300.48c-.68,0-1.34.14-1.91.37-1.63.65-3.28,2.29-3.03,4.94,2.88,31.21,16.38,85.58,74.55,99.03,26.48,6.12,45.04,3.84,55.18-6.8,12.12-12.72,8.76-34.11,7.31-40.87-5.41,1.53-20.11,4.77-39.85,1.82-22.61-3.38-56.33-15.95-88.51-56.62-1.08-1.37-2.46-1.87-3.73-1.87Z"/>
  </g>
  <g>
    <path class="cls-1" d="M211.43,277.12c-32.72,0-74.81,16.42-74.81,16.42-4.82,4.82-5.58,14.02-12.25,17.56-5.37,2.84-9.86,15.44-10.71,33.35-.64,13.52-3.65,27.17-3.65,40.01,0,30.87,20.09,62.25,40.9,78.89,2.89,2.31,6.49,3.52,10.19,3.52h17.73c3.95,0,7.48-2.66,8.36-6.52,5.65-24.92,43.28-24.91,48.93,0,.87,3.85,4.41,6.52,8.36,6.52h17.28c3.7,0,7.3-1.21,10.19-3.52,20.81-16.63,40.9-48.01,40.9-78.89s-6.88-71.27-26.52-90.95c0,0-42.07-16.38-74.9-16.38Z"/>
    <path class="cls-4" d="M261.76,468.96h-17.28c-4.96,0-9.34-3.43-10.41-8.15-2.85-12.58-13.86-17.05-22.42-17.05-8.56,0-19.56,4.47-22.41,17.05-1.07,4.73-5.45,8.15-10.41,8.15h-17.73c-4.2,0-8.29-1.41-11.5-3.98-20.08-16.05-41.69-48.09-41.69-80.53,0-7.23.95-14.8,1.87-22.13.74-5.9,1.5-12.01,1.79-17.98.86-18.24,5.4-31.7,11.83-35.11,3.28-1.74,4.94-5.27,6.7-9.02,1.36-2.9,2.78-5.9,5.04-8.16.21-.21.45-.37.72-.47,1.73-.68,42.84-16.56,75.58-16.56s73.93,15.85,75.67,16.53c.27.11.52.27.73.47,25.18,25.22,27.14,77.13,27.14,92.43,0,32.44-21.61,64.48-41.69,80.53-3.22,2.57-7.3,3.98-11.5,3.98ZM211.65,439.55h0c10.9,0,23.33,6.29,26.52,20.33.64,2.83,3.29,4.88,6.31,4.88h17.28c3.25,0,6.41-1.09,8.88-3.06,19.32-15.44,40.11-46.2,40.11-77.24,0-39.51-9.56-72.78-25.59-89.15-4.43-1.68-43.39-16.08-73.73-16.08s-69.12,14.4-73.62,16.11c-1.59,1.73-2.72,4.14-3.91,6.67-1.89,4.01-4.03,8.55-8.54,10.95-4,2.12-8.71,12.91-9.6,31.59-.29,6.13-1.06,12.32-1.81,18.3-.94,7.53-1.83,14.64-1.83,21.61,0,31.05,20.79,61.81,40.11,77.24,2.47,1.97,5.62,3.06,8.88,3.06h17.73c3.01,0,5.66-2.05,6.31-4.88,3.19-14.04,15.61-20.33,26.52-20.33Z"/>
  </g>
  <g>
    <path class="cls-1" d="M288.41,296.88s45.24,23.12,44.67,81.04c-.96,17.94-8.11,24.92-14.94,27.43s-16.65,1.38-17.46-7.31c-.81-8.69,8.21-37.22-16.02-80.91"/>
    <path class="cls-4" d="M311.63,408.63c-3.05,0-5.92-.71-8.12-2.1-2.88-1.82-4.58-4.68-4.92-8.29-.17-1.84.04-4.33.31-7.48,1.13-13.21,3.22-37.81-16.08-72.61-.56-1.02-.2-2.3.82-2.86,1.02-.56,2.3-.2,2.86.82,19.92,35.92,17.67,62.32,16.59,75.01-.25,2.94-.45,5.26-.31,6.73.21,2.29,1.22,4.01,2.98,5.12,2.82,1.78,7.51,1.94,11.67.41,8.24-3.04,12.81-11.62,13.56-25.52.27-29.15-11.54-49.08-21.5-60.66-10.84-12.61-21.92-18.38-22.03-18.44-1.03-.53-1.44-1.8-.91-2.83.53-1.03,1.79-1.44,2.83-.91.48.24,11.81,6.12,23.18,19.3,10.49,12.15,22.93,33.06,22.63,63.63,0,.03,0,.06,0,.09-1.05,19.64-9.45,26.77-16.31,29.29-2.37.87-4.86,1.3-7.24,1.3ZM333.08,377.92h0,0Z"/>
  </g>
  <g>
    <path class="cls-1" d="M325.41,196.47c18.67,71.35-37.54,112.84-104.52,123.62-66.98,10.78-135.93-11.01-138.02-84.59-2.1-74.17,26.81-150.97,98.58-160.53,71.11-9.47,125.25,50,143.96,121.51Z"/>
    <path class="cls-4" d="M189.1,324.81c-31.92,0-59.68-8.35-78.81-24.19-18.81-15.57-28.74-37.46-29.52-65.07-1.13-39.75,6.63-77.24,21.84-105.55,17.66-32.88,44.83-52.63,78.57-57.12,33.97-4.52,66.23,6.17,93.33,30.92,24.44,22.33,43.24,55.05,52.95,92.14h0c7.19,27.47,3.95,51.96-9.62,72.78-17.54,26.91-52.75,46.39-96.6,53.44-11.04,1.78-21.8,2.65-32.12,2.65ZM196.23,76.08c-4.79,0-9.63.32-14.51.97-32.34,4.31-58.42,23.3-75.42,54.94-14.87,27.68-22.45,64.41-21.34,103.44.75,26.34,10.17,47.19,28,61.95,24.38,20.19,63.6,27.71,107.58,20.63,42.68-6.87,76.85-25.67,93.74-51.59,12.9-19.79,15.95-43.14,9.08-69.42-9.5-36.31-27.87-68.31-51.71-90.1-22.24-20.32-48.08-30.83-75.43-30.83Z"/>
  </g>
  <g>
    <circle class="cls-4" cx="127.32" cy="211.99" r="8.55"/>
    <circle class="cls-4" cx="276.16" cy="188.5" r="8.55"/>
  </g>
  <path class="cls-4" d="M213.15,268.03c-3.38,0-7.03-.98-10.58-1.93-3.51-.94-6.83-1.84-9.53-1.71-18.57.79-52.73-.48-72.88-17.98-.88-.76-.97-2.09-.21-2.97.76-.88,2.09-.97,2.97-.21,14.12,12.26,38.95,18.28,69.94,16.95,3.35-.14,7.14.87,10.8,1.85,4,1.07,8.13,2.18,11.25,1.65,2.96-.5,5.47-2.57,8.13-4.75,2.57-2.11,5.23-4.3,8.58-5.31,29.16-8.81,48.68-21.15,58.01-36.68.6-1,1.89-1.32,2.89-.72,1,.6,1.32,1.89.72,2.89-9.89,16.45-30.21,29.42-60.4,38.54-2.54.77-4.77,2.6-7.12,4.53-2.97,2.44-6.03,4.96-10.1,5.65-.8.14-1.62.19-2.46.19Z"/>
  <g>
    <path class="cls-2" d="M260.23,391.3c0,24.84-20.14,38.68-44.98,38.68s-44.98-13.84-44.98-38.68,20.14-51.27,44.98-51.27,44.98,26.43,44.98,51.27Z"/>
    <path class="cls-4" d="M215.25,432.08c-28.16,0-47.08-16.39-47.08-40.78,0-12.71,4.98-25.94,13.66-36.3,9.23-11.01,21.09-17.07,33.42-17.07s24.19,6.06,33.42,17.07c8.68,10.36,13.66,23.6,13.66,36.3,0,24.39-18.92,40.78-47.08,40.78ZM215.25,342.13c-11.06,0-21.78,5.53-30.19,15.57-8.06,9.62-12.68,21.87-12.68,33.6,0,25.27,21.53,36.58,42.87,36.58s42.87-11.31,42.87-36.58c0-11.74-4.62-23.98-12.68-33.6-8.41-10.04-19.13-15.57-30.19-15.57Z"/>
  </g>
  <g>
    <path class="cls-1" d="M137.89,347.22s28.79,16.19,75.56-3.6c21.87-9.25,23.97-21.18,24.03-28.45s-10.54-18.32-22.23-13.83c-8.14,3.13-29.57,17.28-86.36,13.49"/>
    <path class="cls-4" d="M168.48,355.62c-19.59,0-30.87-6.15-31.62-6.57-1.01-.57-1.37-1.85-.8-2.86.57-1.01,1.85-1.37,2.86-.8.38.21,28.64,15.37,73.71-3.7,20.25-8.57,22.68-19.25,22.75-26.53.03-3.21-2.69-7.44-6.46-10.05-2.34-1.62-7.13-4.01-12.91-1.79-.96.37-2.19.93-3.61,1.59-10.86,5-33.44,15.39-83.64,12.04-1.16-.08-2.04-1.08-1.96-2.24.08-1.16,1.09-2.04,2.24-1.96,49.13,3.27,71.06-6.82,81.6-11.67,1.49-.68,2.77-1.28,3.86-1.69,5.62-2.17,11.6-1.36,16.82,2.26,4.99,3.46,8.31,8.9,8.27,13.55-.04,4.88-.18,19.73-25.32,30.37-18.13,7.67-33.57,10.06-45.79,10.06Z"/>
  </g>
  <path class="cls-4" d="M315.33,74.31c-.39,0-.78-.08-1.16-.24-1.49-.64-2.18-2.37-1.54-3.86.1-.23,2.42-5.58,7.48-11.51,3.28-3.84,7.37-4.3,11.33-4.75,3.21-.37,6.53-.74,10.06-2.91,1.58-.97,4.87-5,5.32-9.93.37-3.96-1.17-7.53-4.57-10.6-10.75-9.71-20.42-1.11-21.49-.09-1.18,1.12-3.04,1.07-4.16-.1-1.12-1.17-1.09-3.03.08-4.15.14-.14,14.46-13.62,29.52-.03,6.04,5.46,6.86,11.45,6.49,15.51-.6,6.5-4.62,12.28-8.11,14.41-4.64,2.85-8.98,3.34-12.47,3.74-3.78.43-5.83.75-7.52,2.73-4.45,5.21-6.53,9.96-6.55,10.01-.48,1.11-1.57,1.78-2.71,1.78Z"/>
  <path class="cls-4" d="M313.22,80.54c-.59-.97-1.53-1.64-2.63-1.91-2.27-.55-4.57.86-5.12,3.14-.26,1.1-.08,2.24.51,3.21.59.97,1.53,1.64,2.63,1.91.33.08.66.12,1,.12.77,0,1.53-.21,2.21-.63.97-.59,1.64-1.53,1.91-2.63.26-1.1.08-2.24-.51-3.21Z"/>
  <g>
    <path class="cls-5" d="M3.42,289.06c-3.39,21.45,8.49,41.61,32.84,41.22,20.7.27,43.28-23.72,18.99-57.79-1.08-1.52-3.28-1.66-4.55-.3-13.43,14.38-19.44-5.63-17.02-17.44.23-1.13-1.2-1.83-1.96-.95-2.54,2.93-5.73,7.01-8.17,11.36-2.17,3.87-8.12,2.1-7.85-2.32,0-.11.01-.21.02-.32.08-1.13-1.38-1.64-2.04-.73-3.06,4.25-8,13-10.26,27.28Z"/>
    <path class="cls-4" d="M35.5,332.39c-10.7,0-19.72-3.84-26.05-11.13-7.12-8.2-10.08-20.06-8.11-32.52h0c2.36-14.93,7.67-24.07,10.63-28.18.85-1.19,2.36-1.65,3.74-1.15,1.37.5,2.22,1.81,2.12,3.26l-.02.3c-.07,1.22.73,1.9,1.51,2.13.37.11,1.65.36,2.4-.96,2.59-4.62,6-8.92,8.41-11.71.98-1.13,2.53-1.45,3.88-.79,1.34.66,2.03,2.08,1.74,3.54-1.42,6.95.49,17.32,4.74,19.52,2.79,1.44,6.26-1.34,8.68-3.93,1.04-1.11,2.51-1.69,4.02-1.59,1.52.1,2.9.87,3.78,2.11,15.33,21.49,11.2,36.96,7.38,44.26-5.35,10.23-16.68,17-28.1,16.85-.24,0-.48,0-.73,0ZM13.93,265.19c-2.78,4.48-6.57,12.37-8.43,24.2h0c-1.77,11.24.83,21.85,7.14,29.11,5.63,6.49,13.76,9.86,23.59,9.68.11,0,.21,0,.32,0,9.86,0,19.48-5.83,24.07-14.6,5.83-11.14,3.32-25.3-7.08-39.87-.2-.28-.48-.34-.63-.35-.15-.01-.43.01-.67.27-6.18,6.62-10.85,6.26-13.68,4.8-5.53-2.85-8.06-12.41-7.42-20.64-1.9,2.39-4.03,5.32-5.75,8.39-1.46,2.61-4.37,3.79-7.25,2.94-2.04-.6-3.55-2.07-4.2-3.93ZM3.42,289.06h0,0ZM13.62,262.35h0s0,0,0,0Z"/>
  </g>
  <g>
    <path class="cls-1" d="M25.97,287.27c-.49-1.24-2.25-1.22-2.73.03-3.43,9.04-6.52,30.39,11.76,33.07,13.62,2,15.41-17.35,14.22-24.31-.18-1.03-1.35-1.56-2.22-.99-4.42,2.91-15.75,5.51-21.03-7.8Z"/>
    <path class="cls-4" d="M36.87,322.62c-.71,0-1.44-.05-2.18-.16-6.02-.88-10.46-3.69-13.19-8.33-5.13-8.73-2.55-21.44-.23-27.57.53-1.39,1.83-2.29,3.31-2.3h.03c1.47,0,2.76.88,3.31,2.24h0c1.77,4.47,4.38,7.28,7.76,8.34,4.19,1.32,8.35-.33,10.15-1.52,1-.66,2.25-.76,3.35-.29,1.11.48,1.9,1.48,2.1,2.68.8,4.65.49,16.97-5.63,23.23-2.37,2.42-5.37,3.67-8.79,3.67ZM24.68,289.58c-1.78,5.59-3.48,15.71.45,22.41,2.05,3.49,5.47,5.61,10.17,6.3,3.02.44,5.41-.31,7.35-2.29,4.35-4.45,5.14-13.9,4.62-18.64-3.11,1.73-8.01,3.01-12.85,1.49-2.95-.93-6.94-3.3-9.74-9.27ZM24.01,288.05h0s0,0,0,0h0Z"/>
  </g>
  <path class="cls-4" d="M203.13,247.65c-.45,0-.9-.14-1.29-.44l-5.68-4.41c-.92-.71-1.09-2.03-.37-2.95s2.03-1.09,2.95-.37l5.68,4.4c.92.71,1.09,2.03.37,2.95-.41.53-1.04.82-1.66.82Z"/>
  <path class="cls-4" d="M216.59,245.41c-.26,0-.53-.05-.79-.16-1.08-.44-1.59-1.67-1.15-2.74l2.72-6.66c.44-1.08,1.66-1.59,2.74-1.15,1.08.44,1.59,1.67,1.15,2.74l-2.72,6.66c-.33.82-1.12,1.31-1.95,1.31Z"/>
</svg>