<?xml version="1.0" encoding="UTF-8"?>
<svg id="_레이어_1" data-name="레이어 1" xmlns="http://www.w3.org/2000/svg" viewBox="0 0 377 500">
  <defs>
    <style>
      .cls-1 {
        fill: #fff3a9;
      }

      .cls-1, .cls-2, .cls-3, .cls-4 {
        stroke-width: 0px;
      }

      .cls-2 {
        fill: #ff8d73;
      }

      .cls-3 {
        fill: #e8efef;
      }

      .cls-4 {
        fill: #725851;
      }
    </style>
  </defs>
  <ellipse class="cls-3" cx="231.43" cy="451.93" rx="127.89" ry="38.07"/>
  <g>
    <path class="cls-1" d="M41.14,223.54L3.61,298.95c-3.33,6.7.43,14.75,7.7,16.5l77,18.47-5.78,52.56c-.64,5.8,3.11,11.17,8.77,12.57l72.48,17.93,1.17-20.37-32.39-6.46,24.89-85.04-98.28-85.17c-5.75-4.98-14.65-3.2-18.04,3.61Z"/>
    <path class="cls-4" d="M163.79,419.08c-.17,0-.34-.02-.51-.06l-72.48-17.93c-6.66-1.65-11.11-8.03-10.36-14.84l5.58-50.72-75.2-18.03c-4.09-.98-7.46-3.73-9.25-7.55-1.78-3.82-1.73-8.17.15-11.93l37.52-75.41h0c1.91-3.83,5.41-6.51,9.61-7.35,4.2-.84,8.46.29,11.7,3.09l98.28,85.17c.62.54.87,1.39.64,2.18l-24.25,82.83,30.14,6.02c1.03.2,1.75,1.14,1.69,2.18l-1.18,20.37c-.04.62-.35,1.2-.85,1.57-.36.27-.8.41-1.25.41ZM43.02,224.48L5.5,299.89c-1.3,2.62-1.34,5.63-.1,8.28,1.24,2.65,3.57,4.56,6.41,5.24l77,18.47c1.03.25,1.72,1.22,1.6,2.28l-5.78,52.56c-.52,4.73,2.57,9.16,7.19,10.3l70.02,17.32.92-16.02-30.6-6.11c-.58-.12-1.08-.47-1.39-.97s-.39-1.11-.22-1.68l24.51-83.74-97.26-84.29c-2.24-1.94-5.2-2.73-8.11-2.14-2.91.58-5.34,2.44-6.66,5.1Z"/>
  </g>
  <g>
    <path class="cls-1" d="M227.43,289.75c-30.61,0-69.98,15.36-69.98,15.36-18.38,18.41-24.89,54.79-24.89,85.04s18.79,58.23,38.26,73.79c2.7,2.16,6.07,3.29,9.53,3.29h16.58c3.69,0,7-2.49,7.82-6.09,5.29-23.31,40.48-23.3,45.77,0,.82,3.6,4.12,6.1,7.82,6.1h16.16c3.46,0,6.83-1.14,9.53-3.29,19.47-15.56,38.26-44.91,38.26-73.79s-6.43-66.66-24.81-85.07c0,0-39.35-15.32-70.06-15.32Z"/>
    <path class="cls-4" d="M274.51,469.33h-16.16c-4.7,0-8.85-3.25-9.87-7.73-2.65-11.69-12.88-15.84-20.83-15.84s-18.18,4.15-20.83,15.84c-1.02,4.48-5.17,7.73-9.87,7.73h-16.58c-3.96,0-7.82-1.33-10.85-3.76-18.81-15.03-39.05-45.05-39.05-75.43,0-14.31,1.84-62.83,25.51-86.52.21-.21.45-.37.72-.47,1.62-.63,40.09-15.5,70.74-15.5s69.2,14.84,70.83,15.47c.27.11.52.27.73.47,23.59,23.63,25.42,72.23,25.42,86.56,0,30.39-20.24,60.4-39.05,75.43-3.03,2.42-6.88,3.76-10.85,3.76ZM227.64,441.54h0c10.25,0,21.94,5.91,24.94,19.12.59,2.58,3.01,4.46,5.77,4.46h16.16c3.01,0,5.93-1.01,8.22-2.83,18.05-14.42,37.47-43.15,37.47-72.15,0-36.91-8.92-67.98-23.88-83.27-4.27-1.62-40.59-15.02-68.89-15.02s-64.53,13.44-68.8,15.05c-15.01,15.33-23.96,46.39-23.96,83.23,0,29,19.42,57.72,37.47,72.15,2.29,1.83,5.21,2.83,8.22,2.83h16.58c2.75,0,5.18-1.87,5.76-4.46,3-13.21,14.68-19.12,24.94-19.12Z"/>
  </g>
  <g>
    <path class="cls-1" d="M373.6,31.47c-1.71-9.84-11.73-15.8-21.21-12.65-43.45,14.45-73.73,58.68-88.27,101.39-11.29-2.7-23.53-4.16-36.7-4.16s-25.07,1.68-36.49,4.76c-14.46-42.89-44.82-87.47-88.47-101.99-9.48-3.15-19.49,2.8-21.21,12.65-7.95,45.67,15.19,96,44.36,130.66-18.97,22.38-29.84,42.79-29.84,72.02,0,65.22,58.94,93.04,131.65,93.04s131.65-27.82,131.65-93.04c0-29.9-9.78-50.93-28.58-73.54,28.57-34.59,50.93-84.13,43.1-129.13Z"/>
    <path class="cls-4" d="M227.43,329.29c-38.54,0-71.12-7.74-94.21-22.39-26.23-16.64-39.54-41.12-39.54-72.76s11.62-51.02,29.2-72.03c-26.77-32.37-51.99-83.33-43.69-131.01.92-5.29,4.08-9.89,8.67-12.63,4.6-2.75,10.17-3.35,15.28-1.65,20.8,6.92,39.69,20.72,56.15,41.03,13.79,17.01,25.18,37.87,33.01,60.43,11.31-2.88,23.12-4.34,35.14-4.34s24.17,1.27,35.33,3.78c17.68-50.57,50.85-88.22,88.97-100.91,5.11-1.7,10.68-1.1,15.28,1.65,4.59,2.74,7.75,7.35,8.67,12.63h0c3.74,21.47,1.05,44.87-7.99,69.56-7.66,20.92-19.56,41.61-34.45,59.94,19.84,24.28,27.96,45.7,27.96,73.55,0,31.64-13.3,56.12-39.54,72.76-23.1,14.65-55.68,22.39-94.22,22.39ZM97.29,20.08c-2.54,0-5.05.68-7.27,2-3.53,2.11-5.97,5.66-6.68,9.74-8.17,46.93,17.32,97.37,43.9,128.94.66.79.66,1.93,0,2.72-17.61,20.78-29.34,40.74-29.34,70.66s12.64,53.39,37.58,69.2c22.42,14.22,54.22,21.74,91.96,21.74s69.54-7.52,91.96-21.74c24.94-15.81,37.58-39.1,37.58-69.2,0-27.27-8.14-48.19-28.09-72.2-.65-.78-.65-1.9,0-2.68,15.11-18.29,27.16-39.05,34.85-60.05,8.78-23.98,11.41-46.65,7.8-67.39h0c-.71-4.08-3.14-7.63-6.68-9.74-3.55-2.12-7.85-2.58-11.79-1.27-19.93,6.63-38.1,19.9-54.01,39.43-13.82,16.97-25.21,37.94-32.93,60.64-.35,1.03-1.42,1.62-2.48,1.37-11.38-2.72-23.56-4.1-36.21-4.1s-24.41,1.58-35.95,4.69c-1.07.29-2.19-.31-2.54-1.36-7.69-22.81-19.07-43.89-32.93-60.98-15.95-19.67-34.19-33.02-54.21-39.69-1.48-.49-3-.73-4.52-.73Z"/>
  </g>
  <path class="cls-4" d="M102.47,18.82c-9.48-3.15-19.49,2.8-21.21,12.65-3.8,21.81-.5,44.69,7.16,66.42,14.48-5.28,44.29-17.81,68.96-39.03-14.81-18.17-33.22-32.82-54.91-40.04Z"/>
  <path class="cls-4" d="M352.4,18.82c9.48-3.15,19.49,2.8,21.21,12.65,3.8,21.81.5,44.69-7.16,66.42-14.48-5.28-44.29-17.81-68.96-39.03,14.81-18.17,33.22-32.82,54.91-40.04Z"/>
  <g>
    <circle class="cls-4" cx="160.96" cy="223.6" r="7.54"/>
    <circle class="cls-4" cx="293.91" cy="224" r="7.54"/>
  </g>
  <g>
    <g>
      <ellipse class="cls-2" cx="126.23" cy="244.63" rx="15.53" ry="23.92" transform="translate(-90.6 75.04) rotate(-24.68)"/>
      <path class="cls-4" d="M120.7,221.94v4.21c6.24,0,12.68,6.92,15.82,13.75,2.3,5,3.24,10.43,2.59,14.9-.33,2.24-1.37,6.23-4.65,7.74-.82.38-1.73.57-2.7.57-6.24,0-12.68-6.92-15.82-13.75-2.3-5-3.24-10.43-2.59-14.9.33-2.24,1.37-6.23,4.65-7.74.82-.38,1.73-.57,2.7-.57v-4.21M120.7,221.94c-1.55,0-3.05.31-4.46.95-7.79,3.58-9.64,16.21-4.12,28.22,4.52,9.84,12.59,16.2,19.64,16.2,1.55,0,3.05-.31,4.46-.95,7.79-3.58,9.64-16.21,4.12-28.22-4.52-9.84-12.59-16.2-19.64-16.2h0Z"/>
    </g>
    <g>
      <ellipse class="cls-2" cx="328.64" cy="244.63" rx="23.92" ry="15.53" transform="translate(-30.86 441.12) rotate(-65.32)"/>
      <path class="cls-4" d="M334.17,226.15c.97,0,1.88.19,2.7.57,3.28,1.51,4.32,5.49,4.65,7.74.65,4.47-.29,9.9-2.59,14.9-3.14,6.83-9.58,13.75-15.82,13.75-.97,0-1.88-.19-2.7-.57-5.48-2.52-6.44-13.1-2.06-22.64,3.14-6.83,9.58-13.75,15.82-13.75M334.17,221.94c-7.05,0-15.12,6.36-19.64,16.2-5.51,12-3.67,24.64,4.12,28.22,1.4.64,2.91.95,4.46.95,7.05,0,15.12-6.36,19.64-16.2,5.51-12,3.67-24.64-4.12-28.22-1.4-.64-2.91-.95-4.46-.95h0Z"/>
    </g>
  </g>
  <path class="cls-4" d="M227.54,276.7c-.1,0-.2,0-.31,0-32.08-.07-60.93-11.51-75.29-29.86-.72-.92-.55-2.24.36-2.95.92-.72,2.24-.55,2.95.36,13.58,17.36,41.17,28.18,71.99,28.25.1,0,.2,0,.3,0,31.17,0,58.09-10.55,72.07-28.25.72-.91,2.04-1.07,2.95-.35.91.72,1.07,2.04.35,2.95-14.77,18.7-42.93,29.86-75.38,29.86Z"/>
  <g>
    <path class="cls-1" d="M158.07,317.22c-8.85-4.08-21.67-17.59-29.48-26.44-2.44-2.77-4.01-6.12-5.1-9.64-1.3-4.19-8.29-5.04-9.97-.34-.27.76-1.14,1.16-1.9.89-2.9-1.01-6.33,1.02-6.93,3.99-.18.88-1.06,1.4-1.93,1.17-2.76-.72-5.95,1.11-6.58,3.94-.18.82-.98,1.39-1.8,1.21-4.85-1.06-7.69,5.18-5.08,8.51,1.92,2.45,3.53,5.13,4.34,8.14,5.33,19.74,42.26,56.67,42.27,57.16"/>
    <path class="cls-4" d="M135.93,367.92c-.73,0-1.38-.38-1.76-.95-.27-.31-1.2-1.31-2.17-2.35-8.84-9.45-35.73-38.21-40.37-55.41-.65-2.39-1.94-4.81-3.97-7.39-1.84-2.34-1.92-5.91-.19-8.67,1.53-2.43,4.09-3.66,6.79-3.3.51-1.67,1.67-3.14,3.24-4.11,1.61-.99,3.5-1.35,5.26-1.04.53-1.8,1.79-3.37,3.53-4.36,1.71-.98,3.68-1.26,5.47-.8,1.15-2.56,3.63-4.07,6.63-4.03,3.34.07,6.2,2.08,7.11,5,1.15,3.71,2.68,6.62,4.67,8.87,12.13,13.75,22.35,22.95,28.78,25.92,1.06.49,1.52,1.74,1.03,2.79s-1.74,1.52-2.79,1.03c-8.91-4.11-21.33-16.93-30.18-26.96-2.39-2.71-4.2-6.11-5.53-10.41-.42-1.36-1.94-2.01-3.17-2.04-.65-.03-2.21.13-2.8,1.78-.66,1.85-2.71,2.83-4.58,2.17-.78-.27-1.71-.16-2.55.32-.85.48-1.46,1.27-1.63,2.1-.2.99-.78,1.82-1.63,2.35-.86.53-1.91.69-2.89.43-.79-.21-1.74-.04-2.53.44-.76.46-1.29,1.16-1.46,1.92-.44,1.97-2.37,3.23-4.3,2.81-1.59-.35-2.5.68-2.9,1.32-.68,1.08-.92,2.75-.07,3.84,2.38,3.03,3.92,5.94,4.72,8.89,2.9,10.74,16.15,28.78,39.38,53.63q2.94,3.14,2.96,4c.04,1.16-.87,2.13-2.03,2.17-.02,0-.05,0-.07,0ZM133.83,365.9h0ZM133.83,365.89h0s0,0,0,0ZM133.83,365.89h0Z"/>
  </g>
  <g>
    <path class="cls-1" d="M296.99,317.22c8.85-4.08,21.67-17.59,29.48-26.44,2.44-2.77,4.01-6.12,5.1-9.64,1.3-4.19,8.29-5.04,9.97-.34.27.76,1.14,1.16,1.9.89,2.9-1.01,6.33,1.02,6.93,3.99.18.88,1.06,1.4,1.93,1.17,2.76-.72,5.95,1.11,6.58,3.94.18.82.98,1.39,1.8,1.21,4.85-1.06,7.69,5.18,5.08,8.51-1.92,2.45-3.53,5.13-4.34,8.14-5.33,19.74-42.26,56.67-42.27,57.16"/>
    <path class="cls-4" d="M319.13,367.92s-.05,0-.07,0c-1.16-.04-2.07-1.01-2.03-2.17q.03-.86,2.96-4c23.23-24.85,36.48-42.89,39.38-53.63.8-2.95,2.34-5.86,4.72-8.89.85-1.09.61-2.75-.07-3.84-.4-.64-1.31-1.66-2.91-1.32-1.93.42-3.86-.84-4.3-2.81-.17-.76-.7-1.46-1.46-1.92-.79-.48-1.74-.65-2.53-.44-.98.26-2.03.1-2.89-.43-.85-.53-1.43-1.37-1.63-2.35-.17-.83-.78-1.62-1.63-2.1-.83-.47-1.76-.59-2.55-.32-1.87.65-3.92-.32-4.58-2.17-.59-1.65-2.16-1.8-2.8-1.78-1.23.03-2.75.67-3.17,2.04-1.33,4.29-3.14,7.7-5.53,10.41-8.85,10.03-21.26,22.84-30.17,26.96-1.06.49-2.3.03-2.79-1.03s-.03-2.3,1.03-2.79c6.44-2.97,16.66-12.17,28.78-25.92,1.99-2.25,3.52-5.16,4.67-8.87.91-2.92,3.76-4.93,7.11-5,3.03-.04,5.48,1.47,6.63,4.03,1.79-.46,3.75-.18,5.47.8,1.74.99,3,2.56,3.53,4.36,1.76-.32,3.65.05,5.26,1.04,1.58.96,2.74,2.44,3.24,4.11,2.7-.36,5.26.87,6.79,3.3,1.73,2.76,1.65,6.32-.19,8.67-2.02,2.58-3.32,5-3.97,7.39-4.64,17.2-31.53,45.96-40.37,55.41-.98,1.05-1.91,2.04-2.17,2.35-.38.58-1.03.95-1.76.95ZM321.23,365.9h0ZM321.23,365.89h0s0,0,0,0ZM321.23,365.89h0Z"/>
  </g>
  <g>
    <path class="cls-4" d="M41.14,223.54L3.61,298.95c-3.33,6.7.43,14.75,7.7,16.5l53.63,12.86,17.07-88.59-22.84-19.8c-5.75-4.98-14.65-3.2-18.04,3.61Z"/>
    <path class="cls-4" d="M64.95,330.42c-.16,0-.33-.02-.49-.06l-53.63-12.86c-4.09-.98-7.46-3.73-9.25-7.55-1.78-3.82-1.73-8.17.15-11.93l37.52-75.41h0c1.91-3.83,5.41-6.51,9.61-7.35,4.2-.84,8.46.29,11.7,3.09l22.85,19.8c.57.49.83,1.25.69,1.99l-17.07,88.59c-.11.56-.44,1.06-.93,1.37-.34.22-.74.34-1.14.34ZM43.02,224.48L5.5,299.89c-1.3,2.62-1.34,5.63-.1,8.28,1.24,2.65,3.57,4.56,6.41,5.24l51.49,12.35,16.43-85.23-21.93-19c-2.24-1.95-5.2-2.73-8.11-2.14s-5.34,2.44-6.66,5.1Z"/>
  </g>
</svg>