<?xml version="1.0" encoding="UTF-8"?>
<svg id="_레이어_1" data-name="레이어 1" xmlns="http://www.w3.org/2000/svg" viewBox="0 0 292 500">
  <defs>
    <style>
      .cls-1 {
        fill: #fff3a9;
      }

      .cls-1, .cls-2, .cls-3, .cls-4, .cls-5, .cls-6, .cls-7, .cls-8 {
        stroke-width: 0px;
      }

      .cls-2 {
        fill: #eac096;
      }

      .cls-3 {
        fill: #e8efef;
      }

      .cls-4 {
        fill: #725851;
      }

      .cls-5 {
        fill: #fffcc7;
      }

      .cls-6 {
        fill: #e8e7da;
      }

      .cls-7 {
        fill: #afd0ed;
      }

      .cls-8 {
        fill: #fff;
      }
    </style>
  </defs>
  <ellipse class="cls-3" cx="144.27" cy="451.93" rx="127.89" ry="38.07"/>
  <g>
    <ellipse class="cls-2" cx="146.17" cy="347.8" rx="111.12" ry="115.69"/>
    <path class="cls-4" d="M146.17,465.6c-62.43,0-113.22-52.84-113.22-117.8s50.79-117.8,113.22-117.8,113.22,52.84,113.22,117.8-50.79,117.8-113.22,117.8ZM146.17,234.21c-60.11,0-109.01,50.96-109.01,113.59s48.9,113.59,109.01,113.59,109.01-50.96,109.01-113.59-48.9-113.59-109.01-113.59Z"/>
  </g>
  <g>
    <path class="cls-7" d="M146.17,289.75c-30.61,0-69.98,15.36-69.98,15.36-18.38,18.41-24.89,54.79-24.89,85.04s18.79,58.23,38.26,73.79c2.7,2.16,6.07,3.29,9.53,3.29h16.58c3.69,0,7-2.49,7.82-6.09,5.29-23.31,40.48-23.3,45.77,0,.82,3.6,4.12,6.1,7.82,6.1h16.16c3.46,0,6.83-1.14,9.53-3.29,19.47-15.56,38.26-44.91,38.26-73.79s-6.43-66.66-24.81-85.07c0,0-39.35-15.32-70.06-15.32Z"/>
    <path class="cls-4" d="M193.24,469.33h-16.16c-4.7,0-8.85-3.25-9.87-7.73-2.65-11.69-12.88-15.84-20.83-15.84s-18.18,4.15-20.83,15.84c-1.02,4.48-5.17,7.73-9.87,7.73h-16.58c-3.96,0-7.82-1.33-10.85-3.76-18.81-15.03-39.05-45.05-39.05-75.43,0-14.31,1.84-62.83,25.51-86.52.21-.21.45-.37.72-.47,1.62-.63,40.09-15.5,70.74-15.5s69.2,14.84,70.83,15.47c.27.11.52.27.73.47,23.59,23.63,25.42,72.23,25.42,86.56,0,30.39-20.24,60.4-39.05,75.43-3.03,2.42-6.88,3.76-10.85,3.76ZM146.38,441.54h0c10.25,0,21.94,5.91,24.94,19.12.59,2.58,3.01,4.46,5.77,4.46h16.16c3.01,0,5.93-1.01,8.22-2.83,18.05-14.42,37.47-43.15,37.47-72.15,0-36.91-8.92-67.98-23.88-83.27-4.27-1.62-40.59-15.02-68.89-15.02s-64.53,13.44-68.8,15.05c-15.01,15.33-23.96,46.39-23.96,83.23,0,29,19.42,57.72,37.47,72.15,2.29,1.83,5.21,2.83,8.22,2.83h16.58c2.75,0,5.18-1.87,5.76-4.46,3-13.21,14.68-19.12,24.94-19.12Z"/>
  </g>
  <g>
    <path class="cls-5" d="M71.8,33.2c-4.45-16.86-22.27-26.64-39.07-20.95-13.97,4.73-22.59,19.18-20.09,33.72,1.99,11.58,10.11,20.26,20.23,23.67l3.86,7.61c1.48,2.91,4.79,4.4,7.94,3.57l15.62-4.12c3.16-.83,5.3-3.76,5.15-7.02l-.4-8.52c6.57-7.33,9.45-17.72,6.75-27.95Z"/>
    <path class="cls-4" d="M60.83,78.73l-15.62,4.12c-4.09,1.08-8.44-.88-10.36-4.65l-3.48-6.86c-10.9-4-18.83-13.51-20.81-25.02-2.67-15.51,6.57-31.01,21.49-36.06,8.64-2.93,17.79-2.17,25.79,2.13,7.88,4.24,13.71,11.63,15.99,20.28,2.71,10.28.23,21.15-6.65,29.24l.36,7.68c.2,4.22-2.63,8.07-6.72,9.15ZM35.35,13.66c-.65.17-1.3.37-1.94.58-12.97,4.4-21.01,17.88-18.69,31.37,1.77,10.27,8.98,18.71,18.83,22.03.52.18.96.55,1.21,1.04l3.86,7.61c1.02,2.01,3.35,3.06,5.53,2.48l15.62-4.12c2.18-.58,3.69-2.63,3.59-4.89l-.4-8.52c-.03-.55.17-1.09.53-1.5,6.36-7.1,8.71-16.82,6.28-26.01-1.98-7.53-7.06-13.96-13.92-17.65-6.36-3.42-13.57-4.26-20.5-2.43Z"/>
  </g>
  <g>
    <rect class="cls-6" x="40.98" y="78.84" width="28.61" height="22.72" rx="4.86" ry="4.86" transform="translate(-21.17 17.07) rotate(-14.77)"/>
    <path class="cls-4" d="M68.59,100.61l-19.75,5.21c-3.3.87-6.7-1.11-7.57-4.41l-3.7-14.05c-.87-3.3,1.11-6.7,4.41-7.57l19.75-5.21c3.3-.87,6.7,1.11,7.57,4.41l3.7,14.05c.87,3.3-1.11,6.7-4.41,7.57ZM43.05,83.85c-1.06.28-1.7,1.37-1.42,2.43l3.7,14.05c.28,1.06,1.37,1.7,2.43,1.42l19.75-5.21c1.06-.28,1.7-1.37,1.42-2.43l-3.7-14.05c-.28-1.06-1.37-1.7-2.43-1.42l-19.75,5.21Z"/>
  </g>
  <g>
    <line class="cls-8" x1="41.97" y1="94.14" x2="68.82" y2="87.07"/>
    <path class="cls-4" d="M69.35,89.1l-26.85,7.08c-1.12.3-2.27-.37-2.57-1.5s.37-2.27,1.5-2.57l26.85-7.08c1.12-.3,2.27.37,2.57,1.5s-.37,2.27-1.5,2.57Z"/>
  </g>
  <path class="cls-4" d="M57.35,50.98c-.38.1-.79.1-1.19-.04-3.28-1.08-5.84-2.45-7.82-3.94-2.91,2.43-6.72,3.13-10.05,2.55-.89-.15-1.78-.41-2.65-.76-2.4,3.97-4.99,6.77-5.23,7.02-.79.85-2.12.89-2.97.09-.85-.79-.89-2.12-.1-2.97.05-.06,2.5-2.7,4.72-6.35-2.28-2.03-3.88-5.03-3.88-8.97,0-4.93,2.41-9.25,5.55-9.85.81-.16,3.58-.36,5.15,3.57,1.8,4.51.68,9.45-1.26,13.71.46.16.93.28,1.38.36,1.94.34,4.31.06,6.24-1.33-3.69-4.45-3.74-9.2-3.58-11.1.4-4.7,2.92-8.45,5.98-8.9.8-.12,3.55-.21,5.07,3.61,1.49,3.74,1.26,8.41-.7,13.9-.28.79-.61,1.51-.99,2.18,1.62,1.19,3.72,2.28,6.45,3.18,1.1.36,1.7,1.55,1.34,2.66-.23.7-.8,1.2-1.46,1.38ZM48.2,28.25c-.61.19-2.08,2.05-2.35,5.07-.14,1.58,0,4.44,2.02,7.31.06-.15.12-.3.17-.45,1.6-4.49,1.86-8.17.75-10.92-.27-.68-.51-.93-.61-1ZM34.43,31.94c-.67.36-2.04,2.5-2.04,5.68,0,2.15.69,3.82,1.71,5.05,1.38-3.22,2.09-6.73.87-9.77-.23-.58-.44-.85-.55-.96Z"/>
  <g>
    <path class="cls-1" d="M240.61,373.05c0,48.1-42.38,78.67-94.66,78.67s-94.66-30.58-94.66-78.67,42.38-95.5,94.66-95.5,94.66,47.4,94.66,95.5Z"/>
    <path class="cls-4" d="M145.96,453.82c-26.41,0-50.64-7.73-68.24-21.76-18.66-14.87-28.52-35.28-28.52-59.02s10.32-48.48,28.31-67.24c18.77-19.58,43.08-30.36,68.45-30.36s49.68,10.78,68.45,30.36c17.99,18.76,28.31,43.27,28.31,67.24s-9.86,44.14-28.52,59.02c-17.6,14.03-41.84,21.76-68.24,21.76ZM145.96,279.65c-24.21,0-47.44,10.32-65.41,29.07-17.25,17.99-27.14,41.43-27.14,64.33s9.31,41.68,26.93,55.73c16.86,13.44,40.16,20.84,65.62,20.84s48.76-7.4,65.62-20.84c17.62-14.05,26.93-33.32,26.93-55.73s-9.89-46.34-27.14-64.33c-17.97-18.74-41.21-29.07-65.41-29.07Z"/>
  </g>
  <g>
    <path class="cls-7" d="M285.72,228.56c0,69.14-62.48,98.63-139.55,98.63S6.62,297.7,6.62,228.56,63.92,94.96,146.17,94.96c90.24,0,139.55,64.46,139.55,133.6Z"/>
    <path class="cls-4" d="M146.17,329.29c-40.83,0-75.34-8.2-99.8-23.71-27.77-17.61-41.85-43.52-41.85-77.02s14.41-68.92,39.54-94.21c26.6-26.76,62.86-41.49,102.11-41.49,42.88,0,79.23,14.36,105.14,41.52,23.55,24.69,36.52,58.14,36.52,94.18,0,33.49-14.08,59.41-41.85,77.02-24.46,15.51-58.98,23.71-99.8,23.71ZM146.17,97.06c-38.12,0-73.33,14.3-99.13,40.25-24.35,24.5-38.32,57.76-38.32,91.24s13.42,56.68,39.9,73.46c23.79,15.09,57.52,23.06,97.55,23.06s73.76-7.97,97.55-23.06c26.47-16.79,39.9-41.5,39.9-73.46,0-34.95-12.56-67.37-35.35-91.27-25.09-26.31-60.39-40.22-102.09-40.22Z"/>
  </g>
  <path class="cls-4" d="M146.17,341.91c-26.07,0-49.48-3.3-69.57-9.81-1.11-.36-1.71-1.54-1.35-2.65.36-1.11,1.55-1.71,2.65-1.35,19.67,6.37,42.64,9.61,68.28,9.61s50.67-3.53,70.9-10.48c1.09-.38,2.29.21,2.67,1.31.38,1.1-.21,2.29-1.31,2.67-20.67,7.11-44.98,10.71-72.26,10.71Z"/>
  <g>
    <circle class="cls-4" cx="75.7" cy="217.39" r="7.99"/>
    <circle class="cls-4" cx="216.64" cy="217.81" r="7.99"/>
  </g>
  <path class="cls-4" d="M146.28,276.7c-.12,0-.24,0-.35,0-34.2-.07-64.95-11.5-80.26-29.81-.75-.89-.63-2.22.26-2.96.89-.75,2.22-.63,2.96.26,14.53,17.38,44.05,28.23,77.04,28.3.11,0,.23,0,.35,0,33.37,0,62.19-10.57,77.15-28.31.75-.89,2.08-1,2.96-.25.89.75,1,2.08.25,2.96-15.75,18.67-45.78,29.8-80.37,29.8Z"/>
  <g>
    <path class="cls-7" d="M54.66,365.82c-.46.16-36.95-37.42-42.27-57.16-.81-3.01-2.42-5.69-4.34-8.14-2.61-3.33.22-9.57,5.08-8.51.82.18,1.62-.39,1.8-1.21.63-2.83,3.82-4.67,6.58-3.94.87.23,1.75-.29,1.93-1.17.6-2.97,4.03-5,6.93-3.99.76.27,1.63-.13,1.9-.89,1.68-4.7,8.66-3.86,9.97.34,1.09,3.52,2.66,6.87,5.1,9.64,7.81,8.85,20.63,22.36,29.48,26.44,3.62,20.13-15.97,46.5-22.14,48.6Z"/>
    <path class="cls-4" d="M54.67,367.92c-.35,0-.71-.09-1.02-.25-2.48-1.32-37.94-38.64-43.29-58.46-.65-2.39-1.94-4.81-3.97-7.39-1.84-2.34-1.92-5.91-.19-8.67,1.53-2.43,4.09-3.66,6.79-3.3.51-1.67,1.67-3.14,3.24-4.11,1.61-.99,3.5-1.35,5.26-1.04.53-1.8,1.79-3.37,3.53-4.36,1.72-.98,3.68-1.26,5.47-.8,1.15-2.56,3.62-4.07,6.63-4.03,3.34.07,6.2,2.08,7.11,5,1.15,3.71,2.68,6.62,4.67,8.87,12.13,13.75,22.35,22.95,28.78,25.92.62.29,1.07.86,1.19,1.54,3.84,21.34-16.42,48.54-23.53,50.96-.22.07-.44.11-.67.11ZM53.99,363.82s0,0,0,0c0,0,0,0,0,0ZM12.05,293.99c-1.21,0-1.94.84-2.28,1.39-.68,1.08-.92,2.75-.07,3.84,2.38,3.03,3.92,5.94,4.72,8.89,4.59,17.02,34.51,49.39,40.56,55.2,6.05-3.97,22.42-26.53,19.91-44.68-8.82-4.57-20.64-16.8-29.15-26.45-2.39-2.71-4.2-6.11-5.53-10.41-.42-1.36-1.94-2.01-3.17-2.04-.64-.03-2.21.13-2.8,1.78-.66,1.85-2.71,2.83-4.58,2.17-.78-.27-1.71-.16-2.55.32-.85.48-1.46,1.27-1.63,2.1-.2.99-.78,1.82-1.63,2.35-.86.53-1.91.69-2.89.43-.79-.21-1.74-.04-2.53.44-.76.46-1.29,1.16-1.46,1.92-.44,1.97-2.37,3.23-4.3,2.81-.22-.05-.43-.07-.62-.07Z"/>
  </g>
  <g>
    <path class="cls-7" d="M239.14,365.82c.46.16,36.95-37.42,42.27-57.16.81-3.01,2.42-5.69,4.34-8.14,2.61-3.33-.22-9.57-5.08-8.51-.82.18-1.62-.39-1.8-1.21-.63-2.83-3.82-4.67-6.58-3.94-.87.23-1.75-.29-1.93-1.17-.6-2.97-4.03-5-6.93-3.99-.76.27-1.63-.13-1.9-.89-1.68-4.7-8.66-3.86-9.97.34-1.09,3.52-2.66,6.87-5.1,9.64-7.81,8.85-20.63,22.36-29.48,26.44-3.62,20.13,15.97,46.5,22.14,48.6Z"/>
    <path class="cls-4" d="M239.14,367.92c-.23,0-.46-.04-.67-.11-7.11-2.42-27.37-29.62-23.53-50.96.12-.68.57-1.25,1.19-1.54,6.44-2.97,16.66-12.17,28.78-25.92,1.99-2.25,3.52-5.16,4.67-8.87.91-2.92,3.76-4.93,7.11-5,.06,0,.12,0,.17,0,2.91,0,5.32,1.52,6.46,4.03,1.79-.46,3.75-.18,5.47.8,1.74.99,3,2.56,3.53,4.36,1.76-.32,3.65.05,5.26,1.04,1.58.96,2.74,2.44,3.24,4.11,2.71-.36,5.26.87,6.79,3.3,1.73,2.76,1.65,6.32-.19,8.67-2.02,2.58-3.32,5-3.97,7.39-5.35,19.83-40.81,57.14-43.29,58.46-.31.17-.67.25-1.02.25ZM239.82,363.82s0,0,0,0c0,0,0,0,0,0ZM218.91,318.63c-2.5,18.15,13.86,40.71,19.91,44.68,6.05-5.81,35.97-38.18,40.56-55.2.8-2.95,2.34-5.86,4.72-8.89.85-1.09.61-2.75-.07-3.84-.4-.64-1.31-1.67-2.9-1.32-1.94.42-3.86-.84-4.3-2.81-.17-.76-.7-1.46-1.46-1.92-.79-.48-1.74-.65-2.53-.44-.98.26-2.03.1-2.89-.43s-1.43-1.37-1.64-2.35c-.17-.83-.78-1.62-1.63-2.11-.84-.48-1.76-.59-2.55-.32-1.86.65-3.92-.32-4.58-2.17-.59-1.65-2.17-1.81-2.8-1.78-1.23.03-2.75.67-3.17,2.04-1.33,4.29-3.14,7.7-5.53,10.41-8.51,9.65-20.33,21.88-29.15,26.45ZM262.76,279.71h0,0Z"/>
  </g>
  <path class="cls-4" d="M146.17,453.82c-1.16,0-2.1-.94-2.1-2.1v-111.91c0-1.16.94-2.1,2.1-2.1s2.1.94,2.1,2.1v111.91c0,1.16-.94,2.1-2.1,2.1Z"/>
  <path class="cls-4" d="M67.29,420.95c-.14,0-.29-.01-.43-.05-1.14-.24-1.87-1.35-1.63-2.49l8.28-39.72-9.84-22.92c-.46-1.07.04-2.3,1.1-2.76,1.07-.46,2.3.04,2.76,1.1l10.1,23.53c.17.4.21.84.13,1.26l-8.41,40.37c-.21.99-1.08,1.67-2.06,1.68Z"/>
  <path class="cls-4" d="M225.47,420.95c-.98,0-1.85-.68-2.06-1.68l-8.41-40.37c-.09-.42-.04-.86.13-1.26l10.1-23.53c.46-1.07,1.69-1.56,2.76-1.1,1.07.46,1.56,1.7,1.1,2.76l-9.84,22.92,8.28,39.72c.24,1.14-.49,2.25-1.63,2.49-.14.03-.29.05-.43.05Z"/>
  <path class="cls-4" d="M143.17,392.51c-10.87,0-20.39-.79-28.31-1.86-24.95-3.37-39.44-9.98-40.04-10.26-1.05-.49-1.51-1.74-1.02-2.79.49-1.06,1.74-1.52,2.79-1.03.14.07,14.64,6.67,39.03,9.93,22.49,3.01,58.23,3.72,100.8-10.03,1.11-.36,2.29.25,2.65,1.35s-.25,2.29-1.35,2.65c-28.43,9.18-53.9,12.03-74.53,12.03Z"/>
</svg>