<?xml version="1.0" encoding="UTF-8"?>
<svg id="_레이어_1" data-name="레이어 1" xmlns="http://www.w3.org/2000/svg" viewBox="0 0 350 500">
  <defs>
    <style>
      .cls-1 {
        fill: #94bfa5;
      }

      .cls-1, .cls-2, .cls-3, .cls-4, .cls-5, .cls-6, .cls-7, .cls-8 {
        stroke-width: 0px;
      }

      .cls-2 {
        fill: #e8efef;
      }

      .cls-3 {
        fill: #725851;
      }

      .cls-4 {
        fill: #72a281;
      }

      .cls-5 {
        fill: #abd6bd;
      }

      .cls-6 {
        fill: #afd0ed;
      }

      .cls-7 {
        fill: #9ac1aa;
      }

      .cls-8 {
        fill: #b7e5cb;
      }
    </style>
  </defs>
  <ellipse class="cls-2" cx="175.06" cy="451.93" rx="158.18" ry="38.07"/>
  <g>
    <path class="cls-4" d="M129.55,112.68c-21.99,22.64-45.97,42.27-72.01,58.82C16.54,197.57-3.12,249.01,8.55,297.85l.92,3.83c12.26,51.28,56.12,87.23,106.43,87.23h118.35c50.31,0,94.18-35.95,106.43-87.23l.45-1.87c11.92-49.85-9.27-101.47-51.27-127.8-27-16.93-50.32-36.82-70.91-58.9-12.15-13.02-28.1,4.98-44.13,4.84-16.29-.15-32.67-18.24-45.26-5.27Z"/>
    <path class="cls-3" d="M234.25,391.02h-118.35c-51.37,0-95.98-36.53-108.48-88.84l-.91-3.83c-5.84-24.43-4.17-49.66,4.82-72.96,9.04-23.4,24.63-42.65,45.09-55.65,25.66-16.32,49.77-36,71.63-58.51h0c8.83-9.1,19.23-4.68,29.29-.41,5.78,2.46,11.76,5,17.51,5.05.06,0,.11,0,.17,0,5.64,0,11.47-2.48,17.12-4.87,9.76-4.14,19.85-8.42,28.36.7,21.71,23.27,44.77,42.42,70.49,58.55,21.06,13.2,37.2,32.59,46.69,56.08,9.53,23.61,11.44,49.2,5.51,74l-.45,1.87c-12.5,52.31-57.11,88.84-108.48,88.84ZM140.3,110.12c-3.32,0-6.4,1.1-9.24,4.02h0c-22.09,22.74-46.44,42.64-72.39,59.13-19.69,12.52-34.71,31.06-43.42,53.62-8.69,22.5-10.3,46.87-4.66,70.47l.91,3.83c12.05,50.41,54.98,85.61,104.39,85.61h118.35c49.41,0,92.34-35.21,104.39-85.61l.45-1.87c5.72-23.94,3.88-48.65-5.32-71.44-9.15-22.66-24.72-41.36-45.02-54.09-26.04-16.32-49.37-35.7-71.34-59.25-6.5-6.97-14.44-3.6-23.64.3-6.1,2.59-12.4,5.25-18.97,5.21-6.58-.06-12.95-2.76-19.11-5.38-5.58-2.37-10.72-4.55-15.39-4.55ZM129.55,112.68h0,0Z"/>
  </g>
  <g>
    <path class="cls-4" d="M107.74,133.18s-74.15,98.91-7.3,221.92"/>
    <path class="cls-3" d="M100.44,357.2c-.75,0-1.47-.4-1.85-1.1-15.39-28.31-24.57-57.71-27.31-87.38-2.19-23.75-.27-47.71,5.7-71.23,10.17-40.05,28.31-64.55,29.08-65.58.7-.93,2.01-1.12,2.94-.42.93.7,1.12,2.01.42,2.94-.18.25-18.47,24.98-28.41,64.26-5.83,23.03-7.69,46.5-5.53,69.75,2.7,29.06,11.71,57.87,26.8,85.64.55,1.02.18,2.3-.84,2.85-.32.17-.66.26-1,.26Z"/>
  </g>
  <g>
    <path class="cls-4" d="M239.42,133.18s74.15,98.91,7.3,221.92"/>
    <path class="cls-3" d="M246.72,357.2c-.34,0-.68-.08-1-.26-1.02-.55-1.4-1.83-.84-2.85,15.09-27.77,24.11-56.58,26.8-85.64,2.16-23.25.29-46.71-5.53-69.75-9.94-39.29-28.23-64.02-28.41-64.26-.7-.93-.51-2.25.42-2.94.93-.7,2.25-.51,2.94.42.77,1.02,18.91,25.53,29.08,65.58,5.97,23.52,7.89,47.48,5.7,71.23-2.73,29.67-11.92,59.07-27.31,87.38-.38.7-1.1,1.1-1.85,1.1Z"/>
  </g>
  <g>
    <path class="cls-7" d="M128.08,355.39c-7.33,14.41-10.41,55.86-11.53,75.16-.16,2.79.51,7.4,1.28,11.55.87,4.67-2.7,8.98-7.45,8.99l-47.34.1c-3.94,0-7.22-2.99-7.58-6.91s-1.01-8.34-2.18-10.62c-33.46-65.06,17.57-80.39-2.96-155.55"/>
    <path class="cls-3" d="M63.01,453.3c-5.04,0-9.19-3.79-9.66-8.82-.59-6.42-1.48-8.92-1.95-9.85-18.01-35.02-11.94-56.37-5.5-78.98,5.87-20.64,11.94-41.98,2.38-76.98-.31-1.12.35-2.28,1.47-2.58,1.13-.3,2.28.35,2.58,1.47,9.87,36.13,3.35,59.03-2.4,79.24-6.47,22.73-12.05,42.37,5.2,75.91,1.09,2.12,1.9,5.95,2.4,11.39.26,2.86,2.62,5,5.47,5h.01l47.34-.1c1.63,0,3.17-.73,4.21-1.98,1.05-1.26,1.47-2.91,1.18-4.53-1.01-5.48-1.45-9.53-1.31-12.05,1.59-27.25,4.93-62.55,11.76-75.99.53-1.04,1.8-1.45,2.83-.92,1.04.53,1.45,1.79.92,2.83-5.08,9.98-9.09,36.38-11.31,74.33-.13,2.15.3,5.97,1.24,11.04.53,2.85-.23,5.75-2.08,7.98-1.84,2.22-4.55,3.5-7.44,3.5l-47.34.1h-.02Z"/>
  </g>
  <g>
    <path class="cls-7" d="M224.16,355.39c7.33,14.41,10.41,55.86,11.53,75.16.16,2.79-.51,7.4-1.28,11.55-.87,4.67,2.7,8.98,7.45,8.99l47.34.1c3.94,0,7.22-2.99,7.58-6.91s1.01-8.34,2.18-10.62c33.46-65.06-17.57-80.39,2.96-155.55"/>
    <path class="cls-3" d="M289.23,453.3h-.02l-47.34-.1c-2.89,0-5.6-1.28-7.44-3.5-1.85-2.22-2.6-5.13-2.08-7.98.94-5.07,1.37-8.89,1.24-11.04-2.22-37.95-6.23-64.35-11.31-74.33-.53-1.04-.11-2.3.92-2.83,1.03-.53,2.3-.11,2.83.92,6.84,13.44,10.17,48.75,11.76,75.99.15,2.52-.29,6.58-1.31,12.05-.3,1.62.13,3.26,1.18,4.53,1.04,1.26,2.58,1.98,4.21,1.98l47.34.1h.01c2.86,0,5.21-2.15,5.47-5,.5-5.43,1.31-9.27,2.4-11.39,17.25-33.54,11.67-53.17,5.2-75.91-2.94-10.33-5.98-21.02-7.08-33.75-1.25-14.46.28-29.34,4.69-45.49.31-1.12,1.47-1.78,2.58-1.47,1.12.31,1.78,1.46,1.47,2.58-9.56,35-3.49,56.34,2.38,76.98,6.43,22.61,12.51,43.96-5.5,78.98-.47.92-1.36,3.43-1.96,9.85-.47,5.03-4.62,8.82-9.66,8.82Z"/>
  </g>
  <g>
    <path class="cls-5" d="M279.5,380.46c0,28.07-16.05,66.1-105.08,66.1s-105.08-38.04-105.08-66.1,47.04-50.82,105.08-50.82,105.08,22.75,105.08,50.82Z"/>
    <path class="cls-3" d="M174.42,448.66c-71.12,0-107.18-22.95-107.18-68.21,0-14.42,11.35-27.86,31.96-37.83,20.13-9.73,46.84-15.09,75.22-15.09s55.09,5.36,75.22,15.09c20.61,9.97,31.96,23.4,31.96,37.83,0,18.63-6.69,33.83-19.88,45.17-17.78,15.28-47.15,23.04-87.3,23.04ZM174.42,331.74c-27.76,0-53.82,5.21-73.38,14.67-19.08,9.23-29.59,21.32-29.59,34.04,0,17.89,5.75,31.63,17.58,41.99,16.66,14.6,45.39,22.01,85.4,22.01,85.11,0,102.97-34.8,102.97-64,0-12.72-10.51-24.81-29.59-34.04-19.57-9.46-45.63-14.67-73.38-14.67Z"/>
  </g>
  <g>
    <path class="cls-5" d="M140.84,426.68c-.32,4.33-.57,8.26-.76,11.54-.16,2.79.51,7.4,1.28,11.55.87,4.67-2.7,8.98-7.45,8.99l-47.34.1c-3.94,0-7.22-2.99-7.58-6.91s-1.01-8.34-2.18-10.62c-10.84-21.07-14.92-44.75-15.49-67.15"/>
    <path class="cls-3" d="M86.55,460.97c-5.04,0-9.19-3.79-9.66-8.82-.59-6.42-1.48-8.92-1.95-9.85-9.76-18.98-15.05-41.88-15.73-68.06-.03-1.16.89-2.13,2.05-2.16.02,0,.04,0,.06,0,1.14,0,2.07.91,2.1,2.05.66,25.55,5.79,47.83,15.26,66.24,1.09,2.12,1.9,5.95,2.4,11.38.26,2.86,2.62,5,5.47,5h.01l47.34-.1c1.63,0,3.17-.73,4.21-1.98,1.05-1.26,1.48-2.91,1.18-4.53-1.01-5.48-1.45-9.53-1.31-12.05.23-3.93.49-7.82.76-11.57.08-1.16,1.1-2.04,2.25-1.94,1.16.08,2.03,1.09,1.94,2.25-.27,3.73-.53,7.61-.76,11.51-.13,2.15.3,5.97,1.24,11.04.53,2.85-.23,5.75-2.08,7.98-1.84,2.22-4.55,3.5-7.44,3.5l-47.34.1h-.02Z"/>
  </g>
  <g>
    <path class="cls-5" d="M215.78,426.37c.32,4.33.57,8.26.76,11.54.16,2.79-.51,7.4-1.28,11.55-.87,4.67,2.7,8.98,7.45,8.99l47.34.1c3.94,0,7.22-2.99,7.58-6.91.36-3.86,1.01-8.34,2.18-10.62,10.84-21.07,14.92-44.75,15.49-67.15"/>
    <path class="cls-3" d="M270.07,460.66h-.02l-47.34-.1c-2.89,0-5.6-1.28-7.44-3.5-1.85-2.22-2.6-5.13-2.08-7.98.94-5.07,1.37-8.89,1.24-11.04-.23-3.88-.48-7.75-.75-11.51-.08-1.16.79-2.17,1.94-2.25,1.17-.09,2.17.79,2.25,1.94.28,3.78.53,7.67.76,11.58.15,2.52-.29,6.58-1.31,12.05-.3,1.62.13,3.26,1.18,4.53,1.04,1.26,2.58,1.98,4.21,1.98l47.34.1h.01c2.86,0,5.21-2.15,5.47-5,.5-5.43,1.31-9.26,2.4-11.38,9.47-18.41,14.6-40.7,15.26-66.24.03-1.16.98-2.12,2.16-2.05,1.16.03,2.08,1,2.05,2.16-.67,26.18-5.96,49.08-15.73,68.06-.48.92-1.36,3.43-1.96,9.85-.47,5.03-4.62,8.82-9.66,8.82Z"/>
  </g>
  <g>
    <path class="cls-8" d="M299.63,240.49l3.97-18.18c1.96-8.97-5.98-16.98-14.97-15.09l-27.54,5.78c-6.25,1.31-12.75.4-18.43-2.53-18.98-9.78-41.8-15.47-68.22-15.47-24.4,0-46.53,5.84-65.52,15.86-5.73,3.02-12.33,3.99-18.67,2.66l-30-6.29c-8.99-1.88-16.93,6.12-14.97,15.09l4.46,20.43c2.79,12.8,1.64,26.08-2.97,38.34-5.24,13.95-8.04,28.77-8.04,43.83,0,67.23,60.76,95.91,135.7,95.91s135.7-28.68,135.7-95.91c0-15.88-2.68-31.51-7.92-46.12-4.41-12.29-5.38-25.55-2.59-38.3Z"/>
    <path class="cls-3" d="M174.44,422.93c-39.71,0-73.28-7.98-97.08-23.07-27.02-17.14-40.72-42.35-40.72-74.94,0-15.14,2.75-30.14,8.17-44.57,4.55-12.11,5.55-24.96,2.88-37.16l-4.46-20.43c-1.07-4.91.4-9.98,3.94-13.55,3.54-3.57,8.59-5.08,13.51-4.05l30,6.29c5.81,1.22,11.94.35,17.26-2.46,20.25-10.68,42.62-16.1,66.5-16.1,25.69,0,48.96,5.28,69.19,15.7,5.26,2.71,11.3,3.54,17.03,2.34l27.54-5.78c4.92-1.03,9.97.48,13.51,4.05,3.54,3.57,5.01,8.63,3.94,13.55l-3.97,18.18c-2.68,12.26-1.81,25.1,2.52,37.14,5.34,14.87,8.05,30.63,8.05,46.83,0,32.59-13.7,57.81-40.72,74.94-23.8,15.09-57.37,23.07-97.08,23.07ZM57.64,209.05c-2.78,0-5.47,1.1-7.48,3.12-2.53,2.55-3.58,6.17-2.82,9.69l4.46,20.43c2.84,12.99,1.78,26.66-3.05,39.53-5.24,13.96-7.9,28.46-7.9,43.09,0,31.06,13.04,55.08,38.77,71.39,23.12,14.66,55.92,22.42,94.83,22.42s71.71-7.75,94.83-22.42c25.73-16.31,38.77-40.33,38.77-71.39,0-15.72-2.62-31-7.8-45.41-4.59-12.78-5.51-26.43-2.67-39.46l3.97-18.18c.77-3.51-.29-7.13-2.82-9.69-2.53-2.55-6.15-3.64-9.66-2.9l-27.54,5.78c-6.67,1.4-13.71.43-19.82-2.72-19.62-10.11-42.25-15.24-67.26-15.24-23.19,0-44.9,5.25-64.54,15.61-6.18,3.26-13.32,4.27-20.09,2.85l-30-6.29c-.73-.15-1.46-.23-2.18-.23ZM299.63,240.49h0,0Z"/>
  </g>
  <g>
    <circle class="cls-3" cx="93.65" cy="322.23" r="7.77"/>
    <circle class="cls-3" cx="255.24" cy="322.64" r="7.77"/>
  </g>
  <path class="cls-3" d="M251.15,351.72c-.14,0-.28-.01-.42-.04-64.36-13.19-115.36-6.93-152.6,0-1.14.21-2.24-.54-2.45-1.68-.21-1.14.54-2.24,1.68-2.45,37.62-7,89.14-13.33,154.22,0,1.14.23,1.87,1.35,1.64,2.48-.2,1-1.08,1.68-2.06,1.68Z"/>
  <path class="cls-1" d="M152.31,207.93c-38.69,10.78,3.79,74.59,36.76,54.8,32.97-19.79-5.78-64.68-36.76-54.8Z"/>
  <path class="cls-1" d="M111.76,263.71h0c-3.33,3.91-3.68,9.55-.84,13.83l7.41,11.2c1.39,2.1,3.44,3.69,5.82,4.52l3.14,1.09c8.38,2.92,16.77-4.32,15.11-13.04l-1.12-5.87c-.57-3-2.31-5.64-4.83-7.36l-9.43-6.43c-4.86-3.31-11.44-2.43-15.26,2.04Z"/>
  <path class="cls-1" d="M230.36,283.11l1.16.41c3.24,1.13,6.83.36,9.32-2l1.57-1.49c1.06-1.01,1.87-2.25,2.35-3.64l1.44-4.13c1.79-5.14-2.86-10.2-8.13-8.85l-6.56,1.68c-1.87.48-3.54,1.53-4.77,3.02l-.41.49c-4.09,4.92-2.02,12.41,4.03,14.52Z"/>
  <g>
    <path class="cls-6" d="M82.15,342.27c-.65-2.13-3.52-2.46-4.65-.53-4.92,8.4-13.21,25.39-.96,27.11,12.68,1.78,8.46-17.12,5.6-26.58Z"/>
    <path class="cls-3" d="M78.11,371.07c-.58,0-1.2-.04-1.86-.14-4.37-.61-6.34-2.92-7.22-4.75-3.1-6.4,1.91-17.41,6.66-25.51.95-1.63,2.72-2.5,4.58-2.28,1.86.22,3.35,1.47,3.9,3.27h0c2.77,9.17,5.11,21.23.49,26.63-1.14,1.33-3.16,2.78-6.54,2.78ZM79.7,342.56c-.17,0-.29.08-.39.23-5.81,9.91-8.24,17.97-6.5,21.55.65,1.34,1.96,2.13,4.02,2.41,3.2.45,4.27-.8,4.62-1.21,2.56-2.99,2.07-11.47-1.32-22.68h0c-.02-.07-.08-.27-.37-.31-.02,0-.05,0-.07,0Z"/>
  </g>
</svg>